<svg width="361" height="63" viewBox="0 0 361 63" fill="none" xmlns="http://www.w3.org/2000/svg">
<path fill-rule="evenodd" clip-rule="evenodd" d="M31.3306 26.2924C31.84 26.2924 32.3311 26.3687 32.7942 26.5102C32.709 26.1607 32.6637 25.796 32.6637 25.4203C32.664 22.887 34.7175 20.8335 37.2507 20.8335C38.2607 20.8335 39.1939 21.1606 39.9517 21.7142C39.5387 21.1561 39.2944 20.4649 39.2944 19.7173C39.294 17.8625 40.7984 16.3581 42.6536 16.3577C44.5082 16.3581 46.0126 17.8625 46.0126 19.7173C46.0122 21.5719 44.5082 23.0763 42.6536 23.0763C41.9705 23.0763 41.3353 22.8725 40.8054 22.5227C41.4499 23.3125 41.8372 24.3209 41.8372 25.4198C41.8372 27.9531 39.7837 30.0069 37.2507 30.0069C36.8622 30.0069 36.4848 29.958 36.125 29.867C36.2592 30.319 36.332 30.7979 36.332 31.2938C36.332 31.801 36.2557 32.2907 36.115 32.752C36.4243 32.6863 36.745 32.6511 37.0741 32.6511C39.6072 32.6515 41.6611 34.7054 41.6611 37.2382C41.6611 38.2485 41.3341 39.1818 40.7801 39.9393C41.3382 39.5261 42.0294 39.2819 42.777 39.2819C44.6318 39.2815 46.1362 40.7863 46.1366 42.641C46.1359 44.4957 44.6318 46.0005 42.777 46C40.9226 45.9996 39.418 44.4957 39.418 42.641C39.418 41.9583 39.6218 41.3228 39.972 40.7929C39.182 41.4376 38.1734 41.8247 37.0741 41.8247C34.5413 41.8247 32.4876 39.7712 32.4876 37.2386C32.4876 36.8546 32.5347 36.4814 32.6237 36.1251C32.2109 36.2355 31.7777 36.2951 31.3306 36.2951C30.7695 36.2951 30.2301 36.2023 29.7266 36.0314C29.8025 36.3631 29.8423 36.7078 29.8423 37.0621C29.8427 39.5948 27.7889 41.649 25.256 41.649C24.2461 41.649 23.3128 41.3218 22.5551 40.7678C22.9683 41.3261 23.2124 42.0173 23.2124 42.7647C23.2124 44.6197 21.708 46.1241 19.8532 46.1237C17.9988 46.1241 16.4946 44.6197 16.4946 42.7651C16.4948 40.9104 17.9988 39.406 19.8532 39.406C20.536 39.406 21.1715 39.6097 21.7017 39.9598C21.0568 39.1694 20.6692 38.1613 20.6692 37.0621C20.6696 34.5297 22.7234 32.4755 25.256 32.4755C25.6927 32.4755 26.1159 32.536 26.5164 32.6503C26.3945 32.219 26.3293 31.764 26.3293 31.2938C26.3293 30.7294 26.4236 30.1869 26.5956 29.6809C26.2244 29.7781 25.8343 29.8299 25.4322 29.8299C22.8996 29.8302 20.8457 27.7763 20.8457 25.2436C20.8457 24.234 21.1727 23.3004 21.7261 22.5425C21.168 22.9558 20.4768 23.1999 19.7292 23.1999C17.8742 23.1999 16.3703 21.6959 16.3703 19.8409C16.3703 17.9863 17.8742 16.4817 19.7292 16.4817C21.5842 16.4823 23.0884 17.9863 23.0882 19.8409C23.0884 20.5239 22.8846 21.159 22.5348 21.6892C23.3245 21.0444 24.3334 20.6571 25.4322 20.6571C27.965 20.6571 30.0193 22.7109 30.0193 25.2436C30.0193 25.6861 29.9567 26.1135 29.8398 26.5182C30.3108 26.3712 30.811 26.2924 31.3306 26.2924ZM19.7127 28.3954C18.1521 28.3958 16.8863 29.6616 16.8863 31.2222C16.8863 32.7828 18.1521 34.0486 19.7127 34.0486C21.2739 34.0486 22.5389 32.7828 22.5389 31.2222C22.5389 29.6616 21.2739 28.3954 19.7127 28.3954ZM14.1837 34.2003C12.7758 34.2007 11.6332 35.3425 11.6332 36.7508C11.6332 38.1597 12.7758 39.3015 14.1837 39.3015C15.5918 39.3015 16.7348 38.1593 16.7344 36.7508C16.7344 35.3425 15.5922 34.2007 14.1837 34.2003ZM14.1837 22.9426C12.7758 22.943 11.6332 24.0852 11.6332 25.4933C11.6332 26.902 12.7758 28.0438 14.1837 28.0438C15.5928 28.0438 16.7348 26.9016 16.7348 25.4933C16.7348 24.0848 15.5922 22.943 14.1837 22.9426ZM8.71913 29.8031C7.79018 29.8031 7.0361 30.5564 7.0361 31.4861C7.0361 32.4155 7.79019 33.1688 8.71955 33.1688C9.64891 33.1688 10.4022 32.4155 10.4022 31.4861C10.4028 30.5564 9.6489 29.8029 8.71913 29.8031ZM0.466293 30.5067C0.208873 30.5067 0 30.9451 0 31.4861C0 32.027 0.208873 32.4654 0.466293 32.4654C0.723366 32.4654 0.932273 32.0268 0.932481 31.4861C0.932481 30.9451 0.723574 30.5067 0.466293 30.5067ZM4.1425 34.9636C3.53524 34.9636 3.04314 35.566 3.04272 36.3092C3.04314 37.0523 3.53524 37.6544 4.1425 37.6544C4.74954 37.6544 5.24185 37.0523 5.24185 36.3092C5.24185 35.566 4.74954 34.9636 4.1425 34.9636ZM4.1425 24.6734C3.53524 24.6734 3.04315 25.276 3.04315 26.019C3.04315 26.7619 3.53524 27.3647 4.1425 27.3647C4.74954 27.3647 5.24185 26.7623 5.24185 26.0186C5.24185 25.276 4.74954 24.6736 4.1425 24.6734ZM8.47683 40.0998C7.63628 40.4618 7.35487 41.6844 7.84794 42.8295C8.34122 43.9755 9.42254 44.611 10.263 44.2492C11.1036 43.8872 11.3846 42.665 10.8919 41.5193C10.3983 40.3738 9.31696 39.738 8.47683 40.0998ZM10.5423 18.3387C9.72614 17.7862 8.48099 18.1661 7.76149 19.1863C7.04199 20.2074 7.12046 21.4831 7.93598 22.0359C8.75198 22.5885 9.99757 22.209 10.717 21.1883C11.4363 20.1671 11.3579 18.8913 10.5423 18.3387ZM6.22978 14.9268C6.12149 14.5096 5.64063 14.5273 5.15519 14.9667C4.66974 15.4055 4.36421 16.0999 4.47209 16.5169C4.58059 16.9337 5.06145 16.916 5.54669 16.477C6.03171 16.0382 6.33787 15.3436 6.22978 14.9268ZM6.22978 47.5634C6.12149 47.9804 5.64063 47.9625 5.15519 47.5231C4.66974 47.0843 4.36401 46.3899 4.47209 45.9729C4.57997 45.5561 5.06145 45.5738 5.54669 46.0132C6.03171 46.4524 6.33787 47.1464 6.22978 47.5634ZM1.8361 41.1587C1.76532 41.4321 1.44995 41.4206 1.13117 41.1324C0.812812 40.8439 0.61154 40.3883 0.682672 40.115C0.753804 39.841 1.06967 39.8529 1.38803 40.1411C1.7068 40.4288 1.90703 40.8847 1.8361 41.1587ZM1.8361 20.9416C1.76532 20.6681 1.44995 20.6797 1.13117 20.968C0.812812 21.2561 0.612164 21.7116 0.682672 21.9856C0.753804 22.2593 1.06967 22.2477 1.38803 21.9592C1.7068 21.6711 1.90703 21.2156 1.8361 20.9416ZM42.7786 28.3958C44.3385 28.3958 45.605 29.6616 45.6046 31.2222C45.6046 32.7828 44.3392 34.0486 42.7788 34.0486C41.2176 34.0486 39.9517 32.7828 39.9517 31.2226C39.9519 29.6616 41.2175 28.3958 42.7786 28.3958ZM48.3076 34.2007C49.7152 34.2007 50.8579 35.3425 50.8574 36.7508C50.8574 38.1597 49.7152 39.3015 48.3076 39.3015C46.8989 39.3015 45.7567 38.1597 45.7567 36.7512C45.7569 35.3425 46.8984 34.2007 48.3076 34.2007ZM48.3072 22.943C49.7157 22.943 50.8579 24.0848 50.8574 25.4933C50.8574 26.902 49.7156 28.0438 48.3076 28.0438C46.8984 28.0438 45.7567 26.9016 45.7567 25.4935C45.7569 24.0848 46.8985 22.9426 48.3072 22.943ZM53.7721 29.8031C54.7013 29.8031 55.4556 30.5564 55.4551 31.4856C55.4551 32.4155 54.7013 33.1688 53.7721 33.1688C52.8423 33.1688 52.0889 32.4155 52.0889 31.4861C52.0889 30.5564 52.8423 29.8031 53.7721 29.8031ZM62.0254 30.5063C62.2818 30.5067 62.4911 30.9451 62.4907 31.4856C62.4907 32.027 62.2818 32.4654 62.0254 32.4654C61.7677 32.4654 61.5588 32.0268 61.5592 31.4866C61.5592 30.9451 61.7677 30.5067 62.0254 30.5063ZM58.349 34.9636C58.9555 34.9636 59.4483 35.566 59.4483 36.3088C59.4479 37.0523 58.956 37.6544 58.3492 37.6544C57.7415 37.6544 57.2496 37.0523 57.2492 36.3092C57.2496 35.566 57.7417 34.9636 58.349 34.9636ZM58.349 24.6736C58.9555 24.6734 59.4483 25.276 59.4479 26.0186C59.4479 26.7619 58.956 27.3647 58.349 27.3647C57.7417 27.3647 57.2496 26.7619 57.2492 26.019C57.2496 25.276 57.7417 24.6734 58.349 24.6736ZM54.0148 40.1002C54.8548 40.4618 55.1368 41.6844 54.6433 42.8295C54.15 43.9755 53.0688 44.611 52.2286 44.2494C51.3877 43.8872 51.1067 42.665 51.5991 41.5193C52.0934 40.3738 53.1741 39.738 54.0148 40.1002ZM51.9488 18.3379C52.7646 17.7865 54.0097 18.1651 54.7295 19.1863C55.4497 20.2074 55.3709 21.4831 54.5551 22.0361C53.7389 22.5885 52.4941 22.2081 51.7752 21.1884C51.0544 20.1672 51.133 18.8919 51.9488 18.3379ZM56.2609 14.9256C56.3694 14.5102 56.8507 14.5277 57.3361 14.9661C57.8213 15.4051 58.1265 16.0999 58.0196 16.5171C57.9105 16.9337 57.4294 16.9157 56.9446 16.4776C56.459 16.0382 56.1534 15.3436 56.2609 14.9256ZM56.2615 47.5634C56.3692 47.9804 56.8507 47.9626 57.3361 47.5233C57.8213 47.0843 58.1271 46.3902 58.019 45.9729C57.9105 45.5561 57.4295 45.5744 56.944 46.0132C56.459 46.4524 56.1534 47.1464 56.2615 47.5634ZM60.6548 41.1587C60.7257 41.4321 61.0416 41.4204 61.3601 41.1324C61.6785 40.8439 61.8795 40.3883 61.808 40.115C61.737 39.841 61.4216 39.8529 61.1033 40.1407C60.7845 40.4296 60.5837 40.8847 60.6548 41.1587ZM60.6546 20.9416C60.7257 20.6681 61.0416 20.6797 61.3599 20.968C61.6785 21.2561 61.8795 21.7116 61.808 21.9856C61.737 22.259 61.4216 22.2474 61.1029 21.9592C60.7845 21.6711 60.5836 21.2156 60.6546 20.9416ZM34.0949 19.7122C34.0949 18.1516 32.829 16.8862 31.2682 16.8862C29.7076 16.8862 28.4422 18.1516 28.4422 19.7122C28.4422 21.2732 29.7076 22.539 31.2682 22.5388C32.829 22.539 34.0949 21.2732 34.0949 19.7122ZM28.29 14.1836C28.2898 12.7751 27.148 11.6329 25.7399 11.6329C24.3311 11.6329 23.1889 12.7751 23.1889 14.1836C23.1889 15.5918 24.3311 16.734 25.7399 16.7339C27.148 16.7339 28.29 15.5918 28.29 14.1836ZM39.5477 14.1836C39.5473 12.7751 38.4055 11.6329 36.9972 11.6329C35.5887 11.6329 34.4465 12.7751 34.4465 14.1836C34.4465 15.5923 35.5887 16.7341 36.9972 16.7341C38.4055 16.7341 39.5477 15.5918 39.5477 14.1836ZM32.6876 8.71867C32.6876 7.78945 31.934 7.03562 31.0042 7.03562C30.0749 7.03562 29.3216 7.78944 29.3216 8.7188C29.3216 9.64837 30.0749 10.4018 31.0046 10.4018C31.934 10.4023 32.6876 9.64838 32.6876 8.71867ZM31.984 0.465771C31.984 0.208351 31.5454 7.62939e-06 31.0042 7.62939e-06C30.4638 7.62939e-06 30.0249 0.208351 30.0249 0.465771C30.0249 0.722637 30.4639 0.931591 31.0042 0.931938C31.5454 0.931938 31.984 0.723053 31.984 0.465771ZM27.5269 4.14174C27.5269 3.53469 26.9245 3.04281 26.1815 3.04239C25.4384 3.04281 24.8359 3.53469 24.8359 4.14174C24.8359 4.749 25.4382 5.24152 26.1815 5.24152C26.9245 5.24152 27.5269 4.749 27.5269 4.14174ZM37.8171 4.14174C37.8171 3.53469 37.2147 3.04282 36.4717 3.04282C35.7284 3.04282 35.1261 3.53469 35.1257 4.14174C35.1261 4.749 35.7284 5.24152 36.4717 5.24152C37.2147 5.24152 37.8171 4.749 37.8171 4.14174ZM22.3905 8.47616C22.0288 7.63596 20.806 7.35434 19.661 7.84748C18.5149 8.34069 17.8796 9.422 18.2413 10.2629C18.6036 11.103 19.8256 11.3841 20.9712 10.8916C22.1166 10.3977 22.7524 9.31664 22.3905 8.47616ZM44.1518 10.5416C44.7045 9.72581 44.3246 8.48066 43.3043 7.76116C42.2833 7.04131 41.0073 7.11994 40.4548 7.93567C39.9022 8.75146 40.2817 9.99702 41.3025 10.7165C42.3236 11.4355 43.5991 11.3578 44.1518 10.5416ZM47.564 6.22926C47.9808 6.12138 47.9631 5.64009 47.524 5.15464C47.0846 4.66982 46.3909 4.36402 45.9733 4.47155C45.5565 4.58005 45.5743 5.06133 46.0135 5.54636C46.4526 6.03152 47.1471 6.33735 47.564 6.22926ZM14.9272 6.22926C14.5104 6.12159 14.5282 5.64009 14.9674 5.15464C15.4061 4.66941 16.1006 4.36367 16.5179 4.47155C16.9342 4.57963 16.917 5.06133 16.4771 5.54636C16.0383 6.03152 15.344 6.33735 14.9272 6.22926ZM21.3321 1.836C21.0585 1.76501 21.0701 1.4492 21.3582 1.13063C21.6465 0.812271 22.102 0.611019 22.3754 0.682152C22.6497 0.7537 22.6374 1.06915 22.3497 1.38793C22.0616 1.70629 21.6057 1.90672 21.3321 1.836ZM41.5485 1.836C41.8224 1.76501 41.8109 1.4492 41.5228 1.13084C41.2342 0.812271 40.7787 0.611988 40.5048 0.682152C40.2314 0.7537 40.243 1.06915 40.5315 1.38793C40.8196 1.70629 41.2752 1.90672 41.5485 1.836ZM34.0949 42.7778C34.0949 44.3382 32.8291 45.6047 31.2685 45.6045C29.7075 45.6045 28.4422 44.3386 28.4422 42.7782C28.4422 41.2169 29.7076 39.9514 31.2682 39.9514C32.829 39.9518 34.0949 41.2169 34.0949 42.7778ZM28.29 48.3073C28.2898 49.7148 27.148 50.8575 25.7399 50.8571C24.3311 50.8571 23.1888 49.7148 23.1892 48.3073C23.1888 46.8986 24.3311 45.7559 25.7396 45.7559C27.148 45.7564 28.2898 46.8986 28.29 48.3073ZM39.5477 48.3066C39.5473 49.7149 38.4055 50.8575 36.9972 50.8571C35.5887 50.8571 34.4465 49.7149 34.4465 48.3073C34.4465 46.898 35.5887 45.7559 36.9972 45.7559C38.4055 45.7564 39.5477 46.898 39.5477 48.3066ZM32.6876 53.7716C32.6876 54.7006 31.934 55.4548 31.0046 55.4546C30.0749 55.4546 29.3216 54.7006 29.3216 53.7716C29.3216 52.8418 30.0752 52.0882 31.0046 52.0882C31.934 52.0882 32.6876 52.8422 32.6876 53.7716ZM31.984 62.025C31.984 62.2815 31.5454 62.4908 31.0046 62.4902C30.4638 62.4902 30.0249 62.2815 30.0249 62.025C30.0249 61.7672 30.4638 61.5583 31.0042 61.5585C31.5454 61.5585 31.984 61.7672 31.984 62.025ZM27.5269 58.3482C27.5269 58.9551 26.9245 59.448 26.1815 59.448C25.4382 59.4476 24.8359 58.9555 24.8359 58.3486C24.8359 57.7408 25.4385 57.2493 26.1811 57.2489C26.9245 57.2493 27.5269 57.7412 27.5269 58.3482ZM37.8167 58.3482C37.8171 58.9551 37.2147 59.448 36.4717 59.4476C35.7284 59.4476 35.1261 58.9555 35.1261 58.3482C35.1261 57.7412 35.7289 57.2493 36.4717 57.2489C37.2147 57.2493 37.8171 57.7412 37.8167 58.3482ZM22.3905 54.0143C22.0288 54.8544 20.806 55.1363 19.661 54.6426C18.5149 54.1495 17.8795 53.0682 18.241 52.2283C18.6027 51.3871 19.8256 51.1061 20.9712 51.5988C22.1166 52.0927 22.7524 53.1737 22.3905 54.0143ZM44.1525 51.9482C44.7043 52.764 44.3254 54.0094 43.3043 54.7292C42.2833 55.4491 41.0077 55.3705 40.4546 54.5547C39.9022 53.7384 40.2823 52.4936 41.3023 51.7749C42.3234 51.0543 43.5989 51.1328 44.1525 51.9482ZM47.5649 56.2606C47.9803 56.3693 47.9631 56.8501 47.5242 57.3355C47.0848 57.8214 46.3909 58.1262 45.9728 58.0192C45.5564 57.9098 45.5747 57.4293 46.0131 56.9445C46.4526 56.4583 47.1467 56.1529 47.5649 56.2606ZM14.9272 56.261C14.5104 56.3684 14.5282 56.8501 14.9674 57.3355C15.4065 57.821 16.1006 58.1268 16.5174 58.0187C16.9342 57.9098 16.9163 57.4293 16.4771 56.9437C16.0383 56.4583 15.344 56.1529 14.9272 56.261ZM21.3321 60.6547C21.0585 60.7258 21.0703 61.0408 21.3582 61.3596C21.6469 61.678 22.1021 61.8788 22.3758 61.808C22.6494 61.7369 22.6374 61.4211 22.3497 61.1027C22.0612 60.784 21.6057 60.5831 21.3321 60.6547ZM41.5485 60.654C41.8224 60.7255 41.8109 61.041 41.5228 61.3593C41.2342 61.6781 40.7791 61.8789 40.5052 61.8078C40.2314 61.737 40.243 61.4212 40.5315 61.1025C40.8196 60.7841 41.2752 60.5833 41.5485 60.654ZM9.42387 9.55124C10.0085 8.89546 10.8825 8.72074 11.3765 9.16035C11.8704 9.60073 11.7977 10.4893 11.2135 11.145C10.6294 11.8005 9.75505 11.9753 9.26157 11.5355C8.76711 11.0951 8.84018 10.2067 9.42387 9.55124ZM12.5182 14.7242C12.5178 13.5702 13.4544 12.6336 14.6088 12.6336C15.7635 12.6336 16.7 13.5698 16.7 14.7242C16.6996 15.8789 15.7635 16.8154 14.6088 16.8154C13.4546 16.8154 12.5178 15.8789 12.5182 14.7242ZM53.0819 52.9312C52.4976 53.5866 51.6247 53.7617 51.1298 53.3213C50.6356 52.8812 50.7081 51.9928 51.2934 51.3374C51.878 50.6816 52.751 50.5067 53.2449 50.9465C53.7397 51.3869 53.6669 52.275 53.0819 52.9312ZM49.9883 47.7579C49.9883 48.9127 49.0518 49.8485 47.8978 49.8485C46.743 49.8485 45.8066 48.9123 45.8066 47.7579C45.8068 46.6031 46.7432 45.6663 47.8974 45.6667C49.0518 45.6667 49.9886 46.6031 49.9883 47.7579ZM9.56363 53.0702C8.90785 52.4859 8.73313 51.6116 9.17275 51.1179C9.61313 50.624 10.5017 50.6971 11.1574 51.281C11.8128 51.865 11.9877 52.739 11.5476 53.233C11.1071 53.7273 10.219 53.6538 9.56363 53.0702ZM14.7365 49.9763C13.5822 49.9763 12.6457 49.0404 12.6457 47.8857C12.6457 46.7307 13.5822 45.7944 14.7365 45.7944C15.8913 45.7948 16.8277 46.7308 16.8277 47.8857C16.8277 49.04 15.8913 49.9763 14.7365 49.9763ZM52.9436 9.41285C53.599 9.9964 53.774 10.8698 53.3337 11.3646C52.8938 11.859 52.0052 11.7859 51.3497 11.2011C50.694 10.6168 50.519 9.74343 50.9584 9.2496C51.3993 8.75473 52.2874 8.82722 52.9436 9.41285ZM47.7703 12.5062C48.9247 12.5062 49.8609 13.4426 49.8609 14.597C49.8609 15.7514 48.9247 16.6878 47.7703 16.6878C46.6155 16.6877 45.6787 15.7512 45.679 14.5974C45.679 13.4426 46.6155 12.5058 47.7703 12.5062Z" fill="#2E3192"/>
<path d="M292.013 34.9666V8.54651H295.745V32.9495H306.197L305.93 34.9666H292.013ZM213.714 14.68C211.474 21.4005 209.62 28.2276 207.242 34.9666H203.621L195.508 8.54651H199.561L204.208 24.1092C204.356 24.6562 204.547 25.3585 204.786 26.2048C205.033 27.0583 205.264 27.8934 205.501 28.7227C205.767 29.6848 206.033 30.6963 206.305 31.7448C208.813 24.0049 211.053 16.1885 213.21 8.35391H215.621L222.8 31.7448C223.085 30.6963 223.349 29.6848 223.598 28.7227C223.707 28.3076 223.818 27.8862 223.938 27.4543C224.055 27.0319 224.166 26.6097 224.275 26.196C224.377 25.7823 224.486 25.3953 224.578 25.0343C224.679 24.6729 224.77 24.3545 224.865 24.08L227.939 13.3551C228.952 8.99557 232.254 8.41971 235.905 8.41971C232.781 8.92602 231.196 10.6933 230.381 13.4413L223.998 34.9666H220.38C217.937 28.2323 216.037 21.376 213.714 14.68ZM244.976 34.9666V8.54651H248.709V34.9666H244.976ZM264.74 34.9666V8.54651H268.47V32.9495H278.923L278.656 34.9666H264.74Z" fill="#2E3192"/>
<path d="M184.721 34.9666H170.023V8.54648H184.122L183.857 10.46L173.754 10.5828V19.9517L183.26 20.0565L182.994 21.7317L173.754 21.9345V32.9314L184.984 33.1336L184.721 34.9666ZM155.502 34.9666H140.807V8.54648H154.907L154.64 10.46L144.538 10.5828V19.9517L154.045 20.0565L153.779 21.7317L144.538 21.9345V32.9314L155.767 33.1336L155.502 34.9666ZM111.857 21.9864C113.542 21.9864 114.909 21.8989 115.953 21.7049C116.997 21.5222 117.805 21.2466 118.356 20.9037C118.612 20.7532 118.838 20.5429 119.052 20.2882C119.273 20.031 119.455 19.6978 119.601 19.2919C119.756 18.887 119.877 18.4006 119.961 17.821C120.031 17.2488 120.076 16.5521 120.076 15.742C120.076 14.7318 119.923 13.8672 119.619 13.1526C119.317 12.4443 118.877 11.8585 118.301 11.411C117.732 10.9609 117.036 10.6363 116.219 10.4333C115.405 10.222 114.475 10.124 113.44 10.124C112.917 10.124 112.478 10.1328 112.104 10.1603C111.725 10.1888 111.26 10.222 110.7 10.2781V21.9864H111.857ZM114.568 23.8176H110.7V34.9666H106.969V8.60189C108.097 8.51329 109.343 8.44345 110.7 8.38945C112.065 8.34619 113.395 8.3195 114.707 8.3195C116.302 8.3195 117.686 8.48042 118.869 8.80433C120.054 9.12976 121.023 9.60632 121.792 10.222C122.563 10.847 123.14 11.604 123.517 12.4963C123.892 13.3937 124.076 14.4045 124.076 15.5427C124.076 16.6411 123.918 17.6198 123.608 18.4638C123.298 19.318 122.877 20.0683 122.359 20.7019C121.839 21.3349 121.225 21.8814 120.519 22.3204C119.812 22.7703 119.071 23.1392 118.301 23.4314C119.127 24.7955 119.925 26.089 120.682 27.3132C122.449 30.1693 126.216 35.454 131.003 35.7778C125.564 35.9856 120.905 34.515 118.676 30.9172C117.976 29.7833 117.117 28.3076 116.1 26.5042L114.568 23.8176ZM81.885 34.9666H78.156V8.54648H92.5221L92.2821 10.4333L81.885 10.5646V21.237L91.9335 21.3435L91.6686 23.025L81.885 23.229V34.9666Z" fill="#2E3192"/>
<path d="M78.086 53.5794L80.9441 43.4334H82.4365L85.2945 53.5794H84.0401L83.2653 50.6748H80.0631L79.3355 53.5794H78.086ZM80.3334 49.6607H82.9909L81.6618 44.1865L80.3334 49.6607ZM90.1253 46.9353V43.4334H91.1962V53.5794H90.156V52.5107C89.9606 52.9259 89.731 53.2412 89.4644 53.4558C89.2005 53.6706 88.8141 53.7801 88.3084 53.7801C87.6137 53.7801 87.0703 53.4924 86.6839 52.9169C86.297 52.3317 86.1084 51.1822 86.1084 49.4589C86.1084 48.4242 86.3019 47.5705 86.6885 46.8958C87.078 46.2139 87.6304 45.8768 88.3544 45.8768C89.0904 45.8768 89.6792 46.2306 90.1253 46.9353ZM87.212 49.8553C87.212 51.0215 87.3236 51.8191 87.5471 52.2409C87.7766 52.664 88.1461 52.8751 88.659 52.8751C89.1177 52.8751 89.4748 52.6656 89.7374 52.2574C89.9936 51.8353 90.1253 51.2856 90.1253 50.6017V49.6379C90.1253 48.6374 90.0052 47.9114 89.7755 47.4636C89.5408 47.0124 89.168 46.7824 88.659 46.7824C87.6914 46.7824 87.212 47.8065 87.212 49.8553ZM95.2748 52.7281L96.9582 46.0761H98.0612L95.8434 53.5794H94.6687L92.4545 46.0761H93.5574L95.2748 52.7281ZM98.9595 48.0966V47.8352C98.9595 46.5302 99.706 45.8768 101.193 45.8768C101.868 45.8768 102.378 46.0378 102.73 46.3672C103.079 46.6914 103.256 47.1254 103.256 47.6623V52.3165C103.256 52.6389 103.397 52.8008 103.692 52.8008C103.764 52.8008 103.834 52.798 103.91 52.7882V53.5641C103.781 53.6167 103.617 53.6403 103.42 53.6403C103.032 53.6403 102.76 53.557 102.599 53.3905C102.448 53.2205 102.361 52.926 102.351 52.5056C102.191 52.8861 101.949 53.1887 101.623 53.434C101.302 53.6629 100.964 53.7801 100.602 53.7801C99.3115 53.7801 98.6625 53.06 98.6625 51.6193C98.6625 50.6888 99.0628 50.0583 99.8587 49.7299L101.8 48.9418C101.971 48.8715 102.092 48.7893 102.164 48.6889C102.234 48.594 102.268 48.3985 102.268 48.1017C102.268 47.5285 102.166 47.1674 101.959 47.0141C101.756 46.8602 101.454 46.7824 101.061 46.7824C100.654 46.7824 100.361 46.8648 100.19 47.033C100.018 47.1982 99.9324 47.4701 99.9324 47.8352V48.0966H98.9595ZM102.186 49.5104C101.81 49.7409 101.25 50.0029 100.5 50.2953C100.01 50.501 99.7669 50.9517 99.7669 51.6525C99.7669 52.4689 100.123 52.8751 100.836 52.8751C101.222 52.8751 101.546 52.7342 101.8 52.4402C102.054 52.1447 102.186 51.7883 102.186 51.3762V49.5104ZM105.239 53.5794V46.0761H106.275V46.9353C106.757 46.2306 107.393 45.8768 108.185 45.8768C108.773 45.8768 109.221 46.0378 109.534 46.3601C109.854 46.681 110.009 47.1674 110.009 47.8352V53.5794H108.939V48.1396C108.939 47.236 108.574 46.7824 107.843 46.7824C107.395 46.7824 107.03 46.9328 106.736 47.2374C106.451 47.5428 106.31 47.9288 106.31 48.401V53.5794H105.239ZM115.458 50.9246H116.476C116.454 51.8308 116.242 52.5343 115.844 53.0309C115.44 53.534 114.876 53.7801 114.146 53.7801C113.281 53.7801 112.643 53.4924 112.233 52.9169C111.829 52.3362 111.62 51.3514 111.62 49.9557C111.62 48.5556 111.823 47.5245 112.229 46.8675C112.638 46.2068 113.29 45.8768 114.191 45.8768C114.886 45.8768 115.434 46.1087 115.828 46.5716C116.226 47.0341 116.424 47.6462 116.424 48.414H115.408C115.408 47.3252 115.004 46.7824 114.191 46.7824C113.671 46.7824 113.299 47.022 113.066 47.5007C112.841 47.9767 112.723 48.8086 112.723 49.9923C112.723 51.0792 112.841 51.8308 113.066 52.2493C113.3 52.6655 113.661 52.8751 114.146 52.8751C114.546 52.8751 114.85 52.7463 115.063 52.4946C115.279 52.2372 115.412 51.7134 115.458 50.9246ZM118.706 49.9032V50.4614C118.706 51.3968 118.837 52.0404 119.086 52.3735C119.34 52.7049 119.676 52.8751 120.092 52.8751C120.491 52.8751 120.804 52.7437 121.022 52.483C121.241 52.2184 121.361 51.8716 121.373 51.4359C121.373 51.3033 121.376 51.1822 121.388 51.0708H122.36V51.3265C122.36 52.0218 122.161 52.6029 121.763 53.0733C121.371 53.5456 120.804 53.7801 120.057 53.7801C118.423 53.7801 117.608 52.4637 117.608 49.8282C117.608 48.6074 117.816 47.6462 118.233 46.9418C118.654 46.2306 119.254 45.8768 120.045 45.8768C120.895 45.8768 121.501 46.1518 121.862 46.7016C122.226 47.2527 122.409 48.3222 122.409 49.9032H118.706ZM118.706 49.022H121.307C121.307 48.1172 121.191 47.5194 120.965 47.2244C120.74 46.9296 120.448 46.7824 120.09 46.7824C119.594 46.7824 119.241 46.954 119.039 47.3026C118.837 47.6526 118.725 48.2229 118.706 49.022ZM127.679 46.9353V43.4334H128.753V53.5794H127.716V52.5107C127.517 52.9259 127.286 53.2412 127.02 53.4558C126.757 53.6706 126.372 53.7801 125.865 53.7801C125.169 53.7801 124.628 53.4924 124.24 52.9169C123.856 52.3317 123.665 51.1822 123.665 49.4589C123.665 48.4242 123.859 47.5705 124.245 46.8958C124.633 46.2139 125.187 45.8768 125.91 45.8768C126.646 45.8768 127.236 46.2306 127.679 46.9353ZM124.768 49.8553C124.768 51.0215 124.877 51.8191 125.105 52.2409C125.33 52.664 125.703 52.8751 126.214 52.8751C126.676 52.8751 127.031 52.6656 127.287 52.2574C127.551 51.8353 127.679 51.2856 127.679 50.6017V49.6379C127.679 48.6374 127.561 47.9114 127.331 47.4636C127.095 47.0124 126.725 46.7824 126.214 46.7824C125.25 46.7824 124.768 47.8065 124.768 49.8553ZM138.869 49.9337H140.025L139.921 51.1445C139.84 51.9467 139.546 52.6009 139.04 53.0995C138.536 53.5975 137.886 53.8455 137.083 53.8455C135.961 53.8455 135.148 53.4515 134.644 52.664C134.146 51.8704 133.899 50.7055 133.899 49.1676V48.4216C133.899 46.6433 134.156 45.3277 134.679 44.4652C135.198 43.5985 136.01 43.1695 137.103 43.1695C137.985 43.1695 138.692 43.4454 139.223 44.0004C139.76 44.5573 140.025 45.2739 140.025 46.1549V46.4459H138.869C138.816 44.9382 138.204 44.1865 137.038 44.1865C136.414 44.1865 135.927 44.49 135.576 45.1052C135.229 45.7165 135.056 46.9746 135.056 48.8798C135.056 50.187 135.211 51.1732 135.525 51.8392C135.84 52.5011 136.336 52.8291 137.027 52.8291C138.056 52.8291 138.643 52.1273 138.789 50.7261L138.869 49.9337ZM142.39 49.9032V50.4614C142.39 51.3968 142.517 52.0404 142.766 52.3735C143.018 52.7049 143.36 52.8751 143.772 52.8751C144.172 52.8751 144.481 52.7437 144.703 52.483C144.924 52.2184 145.04 51.8716 145.055 51.4359C145.055 51.3033 145.057 51.1822 145.067 51.0708H146.04V51.3265C146.04 52.0218 145.84 52.6029 145.442 53.0733C145.052 53.5456 144.481 53.7801 143.738 53.7801C142.102 53.7801 141.287 52.4637 141.287 49.8282C141.287 48.6074 141.497 47.6462 141.913 46.9418C142.334 46.2306 142.936 45.8768 143.725 45.8768C144.576 45.8768 145.18 46.1518 145.544 46.7016C145.909 47.2527 146.091 48.3222 146.091 49.9032H142.39ZM142.39 49.022H144.987C144.987 48.1172 144.873 47.5194 144.646 47.2244C144.418 46.9296 144.129 46.7824 143.772 46.7824C143.274 46.7824 142.923 46.954 142.72 47.3026C142.517 47.6526 142.405 48.2229 142.39 49.022ZM147.695 53.5794V46.0761H148.736V46.9353C149.214 46.2306 149.852 45.8768 150.644 45.8768C151.23 45.8768 151.68 46.0378 151.994 46.3601C152.311 46.681 152.469 47.1674 152.469 47.8352V53.5794H151.398V48.1396C151.398 47.236 151.032 46.7824 150.302 46.7824C149.854 46.7824 149.488 46.9328 149.197 47.2374C148.911 47.5428 148.769 47.9288 148.769 48.401V53.5794H147.695ZM153.609 46.9837V46.0761H154.649V44.0631H155.719V46.0761H156.991V46.9837H155.719V52.0954C155.719 52.326 155.749 52.4793 155.806 52.56C155.865 52.6349 156.022 52.6772 156.267 52.6772H156.954V53.5794H155.766C155.33 53.5794 155.035 53.4924 154.883 53.3174C154.725 53.1388 154.649 52.8214 154.649 52.3735V46.9837H153.609ZM158.34 53.5794V46.0761H159.377V47.2507C159.764 46.3363 160.422 45.8768 161.346 45.8768C161.443 45.8768 161.537 45.881 161.63 45.889V46.9528C161.537 46.9296 161.388 46.9151 161.182 46.9151C160.623 46.9151 160.187 47.0983 159.874 47.4701C159.567 47.8383 159.41 48.3312 159.41 48.9418V53.5794H158.34ZM163.426 49.9032V50.4614C163.426 51.3968 163.555 52.0404 163.803 52.3735C164.06 52.7049 164.395 52.8751 164.812 52.8751C165.21 52.8751 165.521 52.7437 165.741 52.483C165.962 52.2184 166.081 51.8716 166.092 51.4359C166.092 51.3033 166.096 51.1822 166.104 51.0708H167.077V51.3265C167.077 52.0218 166.88 52.6029 166.478 53.0733C166.09 53.5456 165.521 53.7801 164.774 53.7801C163.142 53.7801 162.325 52.4637 162.325 49.8282C162.325 48.6074 162.535 47.6462 162.95 46.9418C163.373 46.2306 163.974 45.8768 164.763 45.8768C165.614 45.8768 166.22 46.1518 166.58 46.7016C166.946 47.2527 167.128 48.3222 167.128 49.9032H163.426ZM163.426 49.022H166.026C166.026 48.1172 165.911 47.5194 165.685 47.2244C165.457 46.9296 165.166 46.7824 164.805 46.7824C164.312 46.7824 163.961 46.954 163.757 47.3026C163.555 47.6526 163.442 48.2229 163.426 49.022ZM171.344 46.0761H172.401V45.336C172.401 44.5876 172.533 44.0772 172.793 43.8094C173.057 43.539 173.494 43.4045 174.103 43.4045C174.331 43.4045 174.509 43.4148 174.638 43.4334V44.3335C174.594 44.3335 174.539 44.3294 174.463 44.3243C174.389 44.3152 174.312 44.3076 174.235 44.3076C173.941 44.3076 173.736 44.3774 173.63 44.5165C173.525 44.6484 173.474 44.8982 173.474 45.2674V46.0761H174.638V46.9837H173.474V53.5794H172.401V46.9837H171.344V46.0761ZM175.581 49.5513C175.581 48.3544 175.806 47.4482 176.253 46.8214C176.71 46.1927 177.378 45.8768 178.268 45.8768C179.128 45.8768 179.782 46.196 180.227 46.8329C180.686 47.4701 180.911 48.3644 180.911 49.5174C180.911 50.9426 180.706 52.0062 180.3 52.7159C179.892 53.4263 179.222 53.7801 178.289 53.7801C177.328 53.7801 176.64 53.454 176.213 52.8008C175.789 52.1447 175.581 51.0623 175.581 49.5513ZM176.682 49.9032C176.682 50.9316 176.806 51.6847 177.053 52.1601C177.302 52.6349 177.7 52.8751 178.248 52.8751C178.82 52.8751 179.221 52.6273 179.459 52.1273C179.692 51.6309 179.807 50.8882 179.807 49.9032C179.807 48.7899 179.687 47.9891 179.448 47.5078C179.201 47.0239 178.801 46.7824 178.243 46.7824C177.708 46.7824 177.312 47.0187 177.056 47.4936C176.809 47.9696 176.682 48.7738 176.682 49.9032ZM182.76 53.5794V46.0761H183.8V47.2507C184.185 46.3363 184.843 45.8768 185.767 45.8768C185.864 45.8768 185.958 45.881 186.051 45.889V46.9528C185.958 46.9296 185.809 46.9151 185.603 46.9151C185.042 46.9151 184.604 47.0983 184.294 47.4701C183.985 47.8383 183.831 48.3312 183.831 48.9418V53.5794H182.76ZM190.584 43.4334H192.566L194.853 52.3517L197.127 43.4334H199.109V53.5794H197.987V44.1439L195.514 53.5794H194.178L191.71 44.1439V53.5794H190.584V43.4334ZM201.757 49.9032V50.4614C201.757 51.3968 201.883 52.0404 202.134 52.3735C202.39 52.7049 202.726 52.8751 203.141 52.8751C203.541 52.8751 203.852 52.7437 204.071 52.483C204.291 52.2184 204.406 51.8716 204.421 51.4359C204.421 51.3033 204.421 51.1822 204.434 51.0708H205.405V51.3265C205.405 52.0218 205.21 52.6029 204.808 53.0733C204.415 53.5456 203.852 53.7801 203.105 53.7801C201.47 53.7801 200.656 52.4637 200.656 49.8282C200.656 48.6074 200.861 47.6462 201.284 46.9418C201.701 46.2306 202.302 45.8768 203.093 45.8768C203.943 45.8768 204.549 46.1518 204.908 46.7016C205.276 47.2527 205.455 48.3222 205.455 49.9032H201.757ZM201.757 49.022H204.357C204.357 48.1172 204.243 47.5194 204.012 47.2244C203.785 46.9296 203.497 46.7824 203.139 46.7824C202.642 46.7824 202.287 46.954 202.086 47.3026C201.883 47.6526 201.773 48.2229 201.757 49.022ZM207.065 53.5794V46.0761H208.101V46.9353C208.583 46.2306 209.217 45.8768 210.01 45.8768C210.599 45.8768 211.047 46.0378 211.361 46.3601C211.679 46.681 211.836 47.1674 211.836 47.8352V53.5794H210.765V48.1396C210.765 47.236 210.4 46.7824 209.668 46.7824C209.22 46.7824 208.855 46.9328 208.563 47.2374C208.276 47.5428 208.133 47.9288 208.133 48.401V53.5794H207.065ZM212.979 46.9837V46.0761H214.015V44.0631H215.086V46.0761H216.355V46.9837H215.086V52.0954C215.086 52.326 215.115 52.4793 215.171 52.56C215.233 52.6349 215.388 52.6772 215.634 52.6772H216.319V53.5794H215.132C214.696 53.5794 214.398 53.4924 214.248 53.3174C214.09 53.1388 214.015 52.8214 214.015 52.3735V46.9837H212.979ZM217.321 48.0966V47.8352C217.321 46.5302 218.063 45.8768 219.552 45.8768C220.226 45.8768 220.736 46.0378 221.086 46.3672C221.437 46.6914 221.613 47.1254 221.613 47.6623V52.3165C221.613 52.6389 221.756 52.8008 222.048 52.8008C222.119 52.8008 222.192 52.798 222.268 52.7882V53.5641C222.138 53.6167 221.974 53.6403 221.778 53.6403C221.39 53.6403 221.115 53.557 220.96 53.3905C220.805 53.2205 220.721 52.926 220.709 52.5056C220.548 52.8861 220.307 53.1887 219.981 53.434C219.663 53.6629 219.318 53.7801 218.962 53.7801C217.667 53.7801 217.019 53.06 217.019 51.6193C217.019 50.6888 217.42 50.0583 218.215 49.7299L220.159 48.9418C220.33 48.8715 220.453 48.7893 220.519 48.6889C220.59 48.594 220.626 48.3985 220.626 48.1017C220.626 47.5285 220.524 47.1674 220.316 47.0141C220.112 46.8602 219.809 46.7824 219.418 46.7824C219.01 46.7824 218.719 46.8648 218.548 47.033C218.378 47.1982 218.294 47.4701 218.294 47.8352V48.0966H217.321ZM220.546 49.5104C220.168 49.7409 219.607 50.0029 218.856 50.2953C218.367 50.501 218.123 50.9517 218.123 51.6525C218.123 52.4689 218.481 52.8751 219.193 52.8751C219.58 52.8751 219.903 52.7342 220.159 52.4402C220.413 52.1447 220.546 51.7883 220.546 51.3762V49.5104ZM223.582 53.5794V43.4334H224.655V53.5794H223.582ZM230.07 43.4334H231.191V47.6462H235.04V43.4334H236.164V53.5794H235.04V48.6657H231.191V53.5794H230.07V43.4334ZM238.949 49.9032V50.4614C238.949 51.3968 239.077 52.0404 239.327 52.3735C239.581 52.7049 239.917 52.8751 240.333 52.8751C240.732 52.8751 241.042 52.7437 241.262 52.483C241.483 52.2184 241.603 51.8716 241.614 51.4359C241.614 51.3033 241.618 51.1822 241.625 51.0708H242.6V51.3265C242.6 52.0218 242.401 52.6029 242 53.0733C241.611 53.5456 241.042 53.7801 240.296 53.7801C238.662 53.7801 237.848 52.4637 237.848 49.8282C237.848 48.6074 238.056 47.6462 238.475 46.9418C238.894 46.2306 239.495 45.8768 240.285 45.8768C241.137 45.8768 241.743 46.1518 242.103 46.7016C242.468 47.2527 242.651 48.3222 242.651 49.9032H238.949ZM238.949 49.022H241.55C241.55 48.1172 241.432 47.5194 241.207 47.2244C240.98 46.9296 240.689 46.7824 240.333 46.7824C239.834 46.7824 239.483 46.954 239.279 47.3026C239.077 47.6526 238.966 48.2229 238.949 49.022ZM243.986 48.0966V47.8352C243.986 46.5302 244.731 45.8768 246.218 45.8768C246.892 45.8768 247.404 46.0378 247.751 46.3672C248.104 46.6914 248.28 47.1254 248.28 47.6623V52.3165C248.28 52.6389 248.421 52.8008 248.714 52.8008C248.787 52.8008 248.86 52.798 248.936 52.7882V53.5641C248.806 53.6167 248.644 53.6403 248.445 53.6403C248.055 53.6403 247.784 53.557 247.625 53.3905C247.471 53.2205 247.388 52.926 247.375 52.5056C247.215 52.8861 246.975 53.1887 246.645 53.434C246.329 53.6629 245.985 53.7801 245.63 53.7801C244.336 53.7801 243.688 53.06 243.688 51.6193C243.688 50.6888 244.087 50.0583 244.883 49.7299L246.826 48.9418C246.996 48.8715 247.12 48.7893 247.189 48.6889C247.258 48.594 247.296 48.3985 247.296 48.1017C247.296 47.5285 247.191 47.1674 246.982 47.0141C246.779 46.8602 246.479 46.7824 246.085 46.7824C245.68 46.7824 245.388 46.8648 245.217 47.033C245.042 47.1982 244.959 47.4701 244.959 47.8352V48.0966H243.986ZM247.21 49.5104C246.835 49.7409 246.273 50.0029 245.523 50.2953C245.034 50.501 244.79 50.9517 244.79 51.6525C244.79 52.4689 245.147 52.8751 245.863 52.8751C246.249 52.8751 246.572 52.7342 246.826 52.4402C247.083 52.1447 247.21 51.7883 247.21 51.3762V49.5104ZM250.245 53.5794V43.4334H251.321V53.5794H250.245ZM252.416 46.9837V46.0761H253.454V44.0631H254.526V46.0761H255.795V46.9837H254.526V52.0954C254.526 52.326 254.555 52.4793 254.612 52.56C254.673 52.6349 254.828 52.6772 255.074 52.6772H255.76V53.5794H254.571C254.134 53.5794 253.842 53.4924 253.687 53.3174C253.532 53.1388 253.454 52.8214 253.454 52.3735V46.9837H252.416ZM257.029 43.4334H258.103V46.9353C258.581 46.2306 259.205 45.8768 259.975 45.8768C260.591 45.8768 261.052 46.0378 261.352 46.3672C261.654 46.6914 261.8 47.1803 261.8 47.8352V53.5794H260.729V48.1396C260.729 47.236 260.364 46.7824 259.635 46.7824C259.132 46.7824 258.75 46.9398 258.491 47.2552C258.231 47.5744 258.103 47.9563 258.103 48.401V53.5794H257.029V43.4334ZM266.906 48.0966V47.8352C266.906 46.5302 267.653 45.8768 269.14 45.8768C269.815 45.8768 270.323 46.0378 270.673 46.3672C271.025 46.6914 271.201 47.1254 271.201 47.6623V52.3165C271.201 52.6389 271.346 52.8008 271.636 52.8008C271.708 52.8008 271.779 52.798 271.857 52.7882V53.5641C271.728 53.6167 271.565 53.6403 271.364 53.6403C270.977 53.6403 270.704 53.557 270.548 53.3905C270.395 53.2205 270.308 52.926 270.297 52.5056C270.136 52.8861 269.897 53.1887 269.567 53.434C269.249 53.6629 268.908 53.7801 268.551 53.7801C267.254 53.7801 266.61 53.06 266.61 51.6193C266.61 50.6888 267.009 50.0583 267.804 49.7299L269.748 48.9418C269.918 48.8715 270.041 48.7893 270.11 48.6889C270.176 48.594 270.215 48.3985 270.215 48.1017C270.215 47.5285 270.113 47.1674 269.901 47.0141C269.7 46.8602 269.399 46.7824 269.007 46.7824C268.6 46.7824 268.308 46.8648 268.139 47.033C267.965 47.1982 267.879 47.4701 267.879 47.8352V48.0966H266.906ZM270.131 49.5104C269.756 49.7409 269.193 50.0029 268.445 50.2953C267.956 50.501 267.711 50.9517 267.711 51.6525C267.711 52.4689 268.068 52.8751 268.784 52.8751C269.167 52.8751 269.492 52.7342 269.748 52.4402C270.001 52.1447 270.131 51.7883 270.131 51.3762V49.5104ZM273.187 53.5794V46.0761H274.224V46.9353C274.7 46.2306 275.338 45.8768 276.131 45.8768C276.718 45.8768 277.165 46.0378 277.48 46.3601C277.799 46.681 277.955 47.1674 277.955 47.8352V53.5794H276.886V48.1396C276.886 47.236 276.52 46.7824 275.79 46.7824C275.34 46.7824 274.975 46.9328 274.686 47.2374C274.395 47.5428 274.255 47.9288 274.255 48.401V53.5794H273.187ZM283.615 46.9353V43.4334H284.688V53.5794H283.646V52.5107C283.451 52.9259 283.22 53.2412 282.955 53.4558C282.69 53.6706 282.304 53.7801 281.799 53.7801C281.104 53.7801 280.561 53.4924 280.175 52.9169C279.789 52.3317 279.6 51.1822 279.6 49.4589C279.6 48.4242 279.791 47.5705 280.177 46.8958C280.568 46.2139 281.121 45.8768 281.845 45.8768C282.58 45.8768 283.168 46.2306 283.615 46.9353ZM280.7 49.8553C280.7 51.0215 280.814 51.8191 281.038 52.2409C281.267 52.664 281.637 52.8751 282.149 52.8751C282.608 52.8751 282.965 52.6656 283.223 52.2574C283.484 51.8353 283.615 51.2856 283.615 50.6017V49.6379C283.615 48.6374 283.501 47.9114 283.266 47.4636C283.031 47.0124 282.659 46.7824 282.149 46.7824C281.183 46.7824 280.7 47.8065 280.7 49.8553ZM296.708 53.5794H295.378C295.257 53.1221 295.168 52.7049 295.128 52.3362C295.082 51.9679 295.059 51.5898 295.059 51.2009C295.059 50.4835 294.905 49.9614 294.592 49.6379C294.275 49.3054 293.855 49.1431 293.315 49.1431H291.393V53.5794H290.27V43.4334H292.932C294.212 43.4334 295.084 43.6705 295.551 44.1509C296.021 44.6285 296.258 45.291 296.258 46.1416C296.258 47.5506 295.595 48.3611 294.274 48.5733C294.966 48.658 295.435 48.8508 295.681 49.1431C295.931 49.4277 296.069 49.8553 296.092 50.4234C296.109 50.9291 296.181 51.6627 296.309 52.6188C296.386 53.0777 296.524 53.3175 296.708 53.3451V53.5794ZM295.098 46.2618C295.098 45.054 294.395 44.4511 292.973 44.4511H291.393V48.1229H293.157C294.453 48.1229 295.098 47.5019 295.098 46.2618ZM299.063 49.9032V50.4614C299.063 51.3968 299.191 52.0404 299.439 52.3735C299.695 52.7049 300.034 52.8751 300.449 52.8751C300.847 52.8751 301.157 52.7437 301.378 52.483C301.596 52.2184 301.715 51.8716 301.727 51.4359C301.727 51.3033 301.733 51.1822 301.74 51.0708H302.713V51.3265C302.713 52.0218 302.519 52.6029 302.119 53.0733C301.723 53.5456 301.157 53.7801 300.413 53.7801C298.777 53.7801 297.964 52.4637 297.964 49.8282C297.964 48.6074 298.171 47.6462 298.587 46.9418C299.008 46.2306 299.609 45.8768 300.399 45.8768C301.251 45.8768 301.858 46.1518 302.216 46.7016C302.583 47.2527 302.766 48.3222 302.766 49.9032H299.063ZM299.063 49.022H301.661C301.661 48.1172 301.548 47.5194 301.32 47.2244C301.093 46.9296 300.803 46.7824 300.449 46.7824C299.949 46.7824 299.597 46.954 299.396 47.3026C299.191 47.6526 299.08 48.2229 299.063 49.022ZM304.374 43.4334H305.442V46.9353C305.925 46.2306 306.547 45.8768 307.318 45.8768C307.936 45.8768 308.393 46.0378 308.695 46.3672C308.993 46.6914 309.142 47.1803 309.142 47.8352V53.5794H308.072V48.1396C308.072 47.236 307.706 46.7824 306.975 46.7824C306.472 46.7824 306.091 46.9398 305.835 47.2552C305.573 47.5744 305.442 47.9563 305.442 48.401V53.5794H304.374V43.4334ZM310.866 48.0966V47.8352C310.866 46.5302 311.61 45.8768 313.1 45.8768C313.772 45.8768 314.283 46.0378 314.633 46.3672C314.984 46.6914 315.16 47.1254 315.16 47.6623V52.3165C315.16 52.6389 315.306 52.8008 315.595 52.8008C315.669 52.8008 315.74 52.798 315.814 52.7882V53.5641C315.685 53.6167 315.523 53.6403 315.325 53.6403C314.935 53.6403 314.663 53.557 314.507 53.3905C314.355 53.2205 314.265 52.926 314.257 52.5056C314.096 52.8861 313.855 53.1887 313.527 53.434C313.209 53.6629 312.866 53.7801 312.51 53.7801C311.215 53.7801 310.57 53.06 310.57 51.6193C310.57 50.6888 310.967 50.0583 311.768 49.7299L313.706 48.9418C313.877 48.8715 313.998 48.7893 314.069 48.6889C314.14 48.594 314.175 48.3985 314.175 48.1017C314.175 47.5285 314.071 47.1674 313.862 47.0141C313.656 46.8602 313.359 46.7824 312.966 46.7824C312.557 46.7824 312.266 46.8648 312.095 47.033C311.924 47.1982 311.838 47.4701 311.838 47.8352V48.0966H310.866ZM314.091 49.5104C313.716 49.7409 313.153 50.0029 312.405 50.2953C311.913 50.501 311.671 50.9517 311.671 51.6525C311.671 52.4689 312.028 52.8751 312.74 52.8751C313.129 52.8751 313.45 52.7342 313.706 52.4402C313.962 52.1447 314.091 51.7883 314.091 51.3762V49.5104ZM317.174 53.5794V43.4334H318.246V46.9353C318.381 46.6195 318.593 46.3672 318.886 46.1753C319.183 45.9792 319.51 45.8768 319.879 45.8768C320.676 45.8768 321.272 46.2003 321.668 46.8414C322.064 47.4801 322.264 48.3222 322.264 49.3669C322.264 50.8165 322.083 51.9139 321.72 52.664C321.365 53.4104 320.757 53.7801 319.895 53.7801C319.093 53.7801 318.508 53.3925 318.147 52.6145V53.5794H317.174ZM318.246 49.9923V50.4574C318.246 51.4124 318.381 52.0575 318.645 52.3865C318.911 52.7139 319.267 52.8751 319.714 52.8751C320.28 52.8751 320.663 52.6054 320.865 52.0646C321.061 51.5167 321.159 50.7261 321.159 49.6833C321.159 47.748 320.671 46.7824 319.694 46.7824C319.173 46.7824 318.799 46.9927 318.576 47.4186C318.356 47.8384 318.246 48.5433 318.246 49.5314V49.9923ZM323.896 46.0761H324.968V53.5794H323.896V46.0761ZM323.896 43.4435H324.968V44.8062H323.896V43.4435ZM326.899 53.5794V43.4334H327.974V53.5794H326.899ZM329.907 46.0761H330.98V53.5794H329.907V46.0761ZM329.907 43.4435H330.98V44.8062H329.907V43.4435ZM332.076 46.9837V46.0761H333.113V44.0631H334.185V46.0761H335.455V46.9837H334.185V52.0954C334.185 52.326 334.214 52.4793 334.271 52.56C334.331 52.6349 334.487 52.6772 334.733 52.6772H335.42V53.5794H334.232C333.796 53.5794 333.502 53.4924 333.343 53.3174C333.189 53.1388 333.113 52.8214 333.113 52.3735V46.9837H332.076ZM336.416 48.0966V47.8352C336.416 46.5302 337.162 45.8768 338.651 45.8768C339.324 45.8768 339.834 46.0378 340.188 46.3672C340.535 46.6914 340.714 47.1254 340.714 47.6623V52.3165C340.714 52.6389 340.858 52.8008 341.148 52.8008C341.223 52.8008 341.293 52.798 341.366 52.7882V53.5641C341.236 53.6167 341.072 53.6403 340.876 53.6403C340.492 53.6403 340.215 53.557 340.06 53.3905C339.905 53.2205 339.823 52.926 339.807 52.5056C339.649 52.8861 339.407 53.1887 339.079 53.434C338.759 53.6629 338.416 53.7801 338.064 53.7801C336.767 53.7801 336.12 53.06 336.12 51.6193C336.12 50.6888 336.517 50.0583 337.316 49.7299L339.258 48.9418C339.43 48.8715 339.55 48.7893 339.618 48.6889C339.691 48.594 339.724 48.3985 339.724 48.1017C339.724 47.5285 339.622 47.1674 339.416 47.0141C339.208 46.8602 338.91 46.7824 338.517 46.7824C338.11 46.7824 337.819 46.8648 337.647 47.033C337.473 47.1982 337.393 47.4701 337.393 47.8352V48.0966H336.416ZM339.64 49.5104C339.266 49.7409 338.704 50.0029 337.956 50.2953C337.466 50.501 337.223 50.9517 337.223 51.6525C337.223 52.4689 337.582 52.8751 338.293 52.8751C338.679 52.8751 339.001 52.7342 339.258 52.4402C339.511 52.1447 339.64 51.7883 339.64 51.3762V49.5104ZM341.839 46.9837V46.0761H342.879V44.0631H343.951V46.0761H345.222V46.9837H343.951V52.0954C343.951 52.326 343.979 52.4793 344.035 52.56C344.096 52.6349 344.253 52.6772 344.498 52.6772H345.185V53.5794H343.997C343.56 53.5794 343.264 53.4924 343.112 53.3174C342.956 53.1388 342.879 52.8214 342.879 52.3735V46.9837H341.839ZM346.44 46.0761H347.515V53.5794H346.44V46.0761ZM346.44 43.4435H347.515V44.8062H346.44V43.4435ZM349.164 49.5513C349.164 48.3544 349.388 47.4482 349.835 46.8214C350.288 46.1927 350.962 45.8768 351.852 45.8768C352.71 45.8768 353.365 46.196 353.813 46.8329C354.266 47.4701 354.494 48.3644 354.494 49.5174C354.494 50.9426 354.289 52.0062 353.88 52.7159C353.475 53.4263 352.806 53.7801 351.872 53.7801C350.911 53.7801 350.22 53.454 349.795 52.8008C349.373 52.1447 349.164 51.0623 349.164 49.5513ZM350.269 49.9032C350.269 50.9316 350.389 51.6847 350.636 52.1601C350.886 52.6349 351.285 52.8751 351.832 52.8751C352.403 52.8751 352.807 52.6273 353.042 52.1273C353.274 51.6309 353.393 50.8882 353.393 49.9032C353.393 48.7899 353.272 47.9891 353.026 47.5078C352.785 47.0239 352.389 46.7824 351.826 46.7824C351.293 46.7824 350.899 47.0187 350.643 47.4936C350.392 47.9696 350.269 48.7738 350.269 49.9032ZM356.229 53.5794V46.0761H357.265V46.9353C357.743 46.2306 358.381 45.8768 359.175 45.8768C359.761 45.8768 360.21 46.0378 360.523 46.3601C360.84 46.681 361 47.1674 361 47.8352V53.5794H359.928V48.1396C359.928 47.236 359.564 46.7824 358.832 46.7824C358.387 46.7824 358.019 46.9328 357.727 47.2374C357.44 47.5428 357.297 47.9288 357.297 48.401V53.5794H356.229ZM358.763 53.5794L358.596 45.1375L358.763 53.5794Z" fill="#2E3192"/>
</svg>
