<svg width="17" height="17" viewBox="0 0 17 17" fill="none" xmlns="http://www.w3.org/2000/svg">
<g clip-path="url(#clip0_15_103)">
<path d="M9.72547 2.48625L10.9721 4.97958C11.1421 5.32666 11.5955 5.65958 11.978 5.72333L14.2376 6.09874C15.6826 6.33958 16.0226 7.38791 14.9813 8.42208L13.2246 10.1787C12.9271 10.4762 12.7642 11.05 12.8563 11.4608L13.3592 13.6354C13.7559 15.3567 12.8421 16.0225 11.3192 15.1229L9.20131 13.8692C8.81881 13.6425 8.18839 13.6425 7.79881 13.8692L5.68089 15.1229C4.16506 16.0225 3.24422 15.3496 3.64089 13.6354L4.14381 11.4608C4.23589 11.05 4.07297 10.4762 3.77547 10.1787L2.01881 8.42208C0.984641 7.38791 1.31756 6.33958 2.76256 6.09874L5.02214 5.72333C5.39756 5.65958 5.85089 5.32666 6.02089 4.97958L7.26756 2.48625C7.94756 1.13333 9.05256 1.13333 9.72547 2.48625Z" stroke="#2E3192" stroke-width="1.0625" stroke-linecap="round" stroke-linejoin="round"/>
</g>
<defs>
<clipPath id="clip0_15_103">
<rect width="17" height="17" fill="white"/>
</clipPath>
</defs>
</svg>
