<svg width="1728" height="480" viewBox="0 0 1728 480" fill="none" xmlns="http://www.w3.org/2000/svg">
<path d="M-2.46589 61.1983C-2.85851 65.7476 -26.1177 9.62962 -60 15.2201V480H1737V22.7165C1664.59 -13.7078 1629.62 -8.15941 1578.38 52.7023C1505.51 39.0518 1485.09 56.2181 1449.18 86.4108L1448.25 87.186C1346.84 22.97 1296.85 51.7879 1207.9 105.177C1105.3 96.1412 1071.18 117.815 1042.83 193.636C1020.98 187.742 1008.91 187.763 987.981 199.633C916.591 161.908 894.857 178.626 862.697 222.122C832.422 204.089 822.576 209.145 809.464 227.619C790.116 210.765 779.006 211.242 758.92 222.122C739.335 171.251 710.472 162.093 640.626 165.649C598.7 91.2482 561.672 65.9747 443.289 128.666C410.351 121.105 392.683 122.079 363.171 136.663C321.969 129.371 300.422 132.732 264.234 149.656C220.747 82.9475 178.323 73.8329 75.5009 100.18C76.2007 55.9617 -2.07327 56.649 -2.46589 61.1983Z" fill="white"/>
</svg>
